# xmcd
#
# Track frame offsets:
#	150
#	16375
#	33315
#
# Disc length: 818 seconds
#
# Revision: 0
# Processed by: cddbd v1.5.2PL0 Copyright (c) Steve Scherf et al.
# Submitted via: audiograbber 1.83.01
#
DISCID=19033003
DTITLE=S Club 7 - Bring it all back (Maxi)
DYEAR=1999
DGENRE=Pop
TTITLE0=Bring it all back
TTITLE1=So right
TTITLE2=Bring it all back (K-klass Club Mix)
EXTD=
EXTT0=
EXTT1=
EXTT2=
PLAYORDER=
